<svg id="Layer_1" data-name="Layer 1" xmlns="http://www.w3.org/2000/svg" xmlns:xlink="http://www.w3.org/1999/xlink" viewBox="0 0 188 188"><defs><style>.cls-1{fill:url(#linear-gradient);}.cls-2{fill:url(#linear-gradient-3);}.cls-3{fill:url(#linear-gradient-4);}</style><linearGradient id="linear-gradient" x1="-1073.87" y1="-1474.28" x2="8570.46" y2="17497.23" gradientUnits="userSpaceOnUse"><stop offset="0" stop-color="#34a8ff"/><stop offset="0.25" stop-color="#c1a4f5"/><stop offset="0.54" stop-color="#847edf"/><stop offset="0.73" stop-color="#7da6fa"/><stop offset="1" stop-color="#3049c0"/><stop offset="1" stop-color="#f8a9fd"/></linearGradient><linearGradient id="linear-gradient-3" x1="-1281.68" y1="360.22" x2="-1281.68" y2="356.8" gradientTransform="matrix(7.54, 0, 0, -33.86, 9754.72, 12255.53)" gradientUnits="userSpaceOnUse"><stop offset="0" stop-color="#96f" stop-opacity="0.99"/><stop offset="0.5" stop-color="#466eff" stop-opacity="0.99"/><stop offset="1" stop-color="#53d4fe"/></linearGradient><linearGradient id="linear-gradient-4" x1="-1281.68" y1="296.91" x2="-1281.68" y2="293.19" gradientTransform="matrix(7.54, 0, 0, -7.52, 9754.72, 2252.16)" gradientUnits="userSpaceOnUse"><stop offset="0" stop-color="#96f" stop-opacity="0.99"/><stop offset="0.26" stop-color="#9769ff" stop-opacity="0.99"/><stop offset="0.44" stop-color="#9272ff" stop-opacity="0.99"/><stop offset="0.6" stop-color="#8881ff" stop-opacity="0.99"/><stop offset="0.74" stop-color="#7a96ff" stop-opacity="0.99"/><stop offset="0.87" stop-color="#69b2fe"/><stop offset="1" stop-color="#53d4fe"/><stop offset="1" stop-color="#53d4fe"/></linearGradient></defs><title>iTdoTArtboard 3</title><g id="Symbols"><g id="LOGO-IN-CIRCLE"><g id="Fill-1"><path id="path-6" class="cls-1" d="M87.5,58h13a6.47,6.47,0,0,1,6.5,6.44V167.56a6.47,6.47,0,0,1-6.5,6.44h-13a6.47,6.47,0,0,1-6.5-6.44V64.44A6.47,6.47,0,0,1,87.5,58"/><path id="path-4" class="cls-1" d="M94,18A14,14,0,1,1,80,32,14,14,0,0,1,94,18"/><path id="path-6-2" data-name="path-6" class="cls-2" d="M87.5,58h13a6.47,6.47,0,0,1,6.5,6.44V167.56a6.47,6.47,0,0,1-6.5,6.44h-13a6.47,6.47,0,0,1-6.5-6.44V64.44A6.47,6.47,0,0,1,87.5,58"/><path id="path-4-2" data-name="path-4" class="cls-3" d="M94,18A14,14,0,1,1,80,32,14,14,0,0,1,94,18"/></g></g></g></svg>