<svg id="Layer_1" data-name="Layer 1" xmlns="http://www.w3.org/2000/svg" xmlns:xlink="http://www.w3.org/1999/xlink" viewBox="0 0 188 188"><defs><style>.cls-1{fill:url(#linear-gradient);}.cls-2{fill:url(#linear-gradient-2);}</style><linearGradient id="linear-gradient" x1="-1073.87" y1="-1714.28" x2="8570.46" y2="17257.23" gradientUnits="userSpaceOnUse"><stop offset="0" stop-color="#34a8ff"/><stop offset="0.25" stop-color="#c1a4f5"/><stop offset="0.54" stop-color="#847edf"/><stop offset="0.73" stop-color="#7da6fa"/><stop offset="1" stop-color="#3049c0"/><stop offset="1" stop-color="#f8a9fd"/></linearGradient><linearGradient id="linear-gradient-2" x1="94" y1="169" x2="94" y2="23" gradientUnits="userSpaceOnUse"><stop offset="0" stop-color="#96f" stop-opacity="0.99"/><stop offset="0.5" stop-color="#466eff" stop-opacity="0.99"/><stop offset="1" stop-color="#53d4fe"/></linearGradient></defs><title>iTdoTArtboard 3 copy</title><g id="Symbols"><g id="LOGO-IN-CIRCLE"><g id="Fill-1"><path class="cls-1" d="M158.4,23H29.6A4.59,4.59,0,0,0,25,27.58V45.91a4.59,4.59,0,0,0,4.6,4.58H80.2V90.3c0,.13,0,.25,0,.38v71.44A6.89,6.89,0,0,0,87.09,169h13.82a6.89,6.89,0,0,0,6.91-6.87V90.68c0-.13,0-.26,0-.38V50.5h50.6a4.59,4.59,0,0,0,4.6-4.58V27.58A4.59,4.59,0,0,0,158.4,23Z"/><path class="cls-2" d="M158.4,23H29.6A4.59,4.59,0,0,0,25,27.58V45.91a4.59,4.59,0,0,0,4.6,4.58H80.2V90.3c0,.13,0,.25,0,.38v71.44A6.89,6.89,0,0,0,87.09,169h13.82a6.89,6.89,0,0,0,6.91-6.87V90.68c0-.13,0-.26,0-.38V50.5h50.6a4.59,4.59,0,0,0,4.6-4.58V27.58A4.59,4.59,0,0,0,158.4,23Z"/></g></g></g></svg>