<svg id="Layer_1" data-name="Layer 1" xmlns="http://www.w3.org/2000/svg" xmlns:xlink="http://www.w3.org/1999/xlink" viewBox="0 0 188 188"><defs><style>.cls-1{fill:url(#linear-gradient);}.cls-2{fill:url(#linear-gradient-2);}</style><linearGradient id="linear-gradient" x1="-1073.87" y1="-1943.47" x2="8570.46" y2="17028.05" gradientUnits="userSpaceOnUse"><stop offset="0" stop-color="#34a8ff"/><stop offset="0.25" stop-color="#c1a4f5"/><stop offset="0.54" stop-color="#847edf"/><stop offset="0.73" stop-color="#7da6fa"/><stop offset="1" stop-color="#3049c0"/><stop offset="1" stop-color="#f8a9fd"/></linearGradient><linearGradient id="linear-gradient-2" x1="-1435.38" y1="-122.15" x2="-1435.38" y2="-125.85" gradientTransform="matrix(28.15, 0, 0, -33.86, 40504.18, -4102.08)" gradientUnits="userSpaceOnUse"><stop offset="0" stop-color="#96f" stop-opacity="0.99"/><stop offset="0.5" stop-color="#466eff" stop-opacity="0.99"/><stop offset="1" stop-color="#53d4fe"/></linearGradient></defs><title>iTdoTArtboard 3 copy 2</title><g id="Symbols"><g id="LOGO-IN-CIRCLE"><g id="Fill-1"><path id="path-9" class="cls-1" d="M92.63,34.29H58a7,7,0,0,0-7,7V152.59a7,7,0,0,0,7,7H92.63a62.68,62.68,0,0,0,62.52-62.41v-.45A62.68,62.68,0,0,0,92.63,34.28Zm0,27.82a34.83,34.83,0,0,1,34.63,34.58v.45a34.83,34.83,0,0,1-34.63,34.58H78.91V62.13H92.63Z"/><path id="path-9-2" data-name="path-9" class="cls-2" d="M92.63,34.29H58a7,7,0,0,0-7,7V152.59a7,7,0,0,0,7,7H92.63a62.68,62.68,0,0,0,62.52-62.41v-.45A62.68,62.68,0,0,0,92.63,34.28Zm0,27.82a34.83,34.83,0,0,1,34.63,34.58v.45a34.83,34.83,0,0,1-34.63,34.58H78.91V62.13H92.63Z"/></g></g></g></svg>