<?xml version="1.0" encoding="UTF-8" standalone="no"?>
<svg width="32px" height="43px" viewBox="0 0 32 43" version="1.1" xmlns="http://www.w3.org/2000/svg" xmlns:xlink="http://www.w3.org/1999/xlink">
    <!-- Generator: Sketch 50.2 (55047) - http://www.bohemiancoding.com/sketch -->
    <title>Group@2x</title>
    <desc>Created with Sketch.</desc>
    <defs>
        <polygon id="path-1" points="31.4506667 42.8828069 31.4506667 0.903441582 0.940133333 0.903441582 0.940133333 42.8828069"></polygon>
    </defs>
    <g id="Symbols" stroke="none" stroke-width="1" fill="none" fill-rule="evenodd" opacity="0.904734142">
        <g id="men-2-arm" transform="translate(-127.000000, -89.000000)">
            <g transform="translate(6.000000, 27.000000)" id="две-руки">
                <g transform="translate(0.000000, 12.000000)">
                    <g id="Group-16">
                        <g transform="translate(101.000000, 50.000000)">
                            <g id="Group" transform="translate(20.000000, 0.000000)">
                                <g id="Group-68">
                                    <mask id="mask-2" fill="white">
                                        <use xlink:href="#path-1"></use>
                                    </mask>
                                    <g id="Clip-67"></g>
                                    <polygon id="Fill-66" fill="#65B1FC" mask="url(#mask-2)" points="31.3814667 0.903441582 31.4508 25.2304744 1.00946667 42.8828069 0.940133333 18.5571133"></polygon>
                                </g>
                                <g id="уьфшд" transform="translate(9.000000, 14.000000)" fill="#FFFFFF">
                                    <g id="Group-19" transform="translate(-0.941176, 0.000000)">
                                        <path d="M13.1764706,8.23942208 L16.8502553,1.9047619 C16.8991725,2.08521303 16.9261269,2.2927908 16.9261269,2.52867463 L16.9411016,9.08270677 C16.9420999,9.2265959 16.9331151,9.37284387 16.9141472,9.52380952 L13.1764706,8.23942208 Z" id="Fill-75"></path>
                                        <path d="M4.70588235,12.7272727 L0.986089452,19.047619 C0.967126193,18.9247689 0.957145531,18.7913888 0.957145531,18.6486486 L0.941176471,12.1469521 C0.941176471,11.9129519 0.964131994,11.6731017 1.01403531,11.4285714 L4.70588235,12.7272727 Z" id="Fill-77" transform="translate(2.823529, 15.238095) rotate(3.000000) translate(-2.823529, -15.238095) "></path>
                                        <path d="M8.13369066,13.5293496 C8.37789989,13.5973992 8.65647023,13.5481219 8.93504056,13.3944237 C9.21361089,13.2395522 9.49095404,12.9826063 9.7339361,12.6470514 L11.971089,9.52380952 L16.9411765,10.9024005 C16.5656588,11.659159 15.9717026,12.3431747 15.2955253,12.7162742 L2.58682764,19.7312491 C1.91555904,20.1020021 2.25909784,20.0761902 1.88235294,19.7335956 L6.82666955,12.8828784 L8.13369066,13.5293496 Z" id="Fill-79"></path>
                                        <path d="M8.48880787,11.3786993 C8.40887656,11.4272875 8.32776979,11.4406492 8.25371579,11.4175698 L0.941176471,9.14728634 C1.30086736,8.47433981 1.81336811,7.88156381 2.38111549,7.54266114 L14.5530082,0.279940425 C15.124282,-0.0601769529 15.6379582,-0.0796122316 16,0.163328752 L8.72389996,11.136973 C8.64984595,11.2499406 8.56873918,11.3301111 8.48880787,11.3786993" id="Fill-81"></path>
                                    </g>
                                </g>
                            </g>
                        </g>
                    </g>
                </g>
            </g>
        </g>
    </g>
</svg>