<?xml version="1.0" encoding="UTF-8" standalone="no"?>
<svg width="33px" height="35px" viewBox="0 0 33 35" version="1.1" xmlns="http://www.w3.org/2000/svg" xmlns:xlink="http://www.w3.org/1999/xlink">
    <!-- Generator: Sketch 50.2 (55047) - http://www.bohemiancoding.com/sketch -->
    <title>lamp@2x</title>
    <desc>Created with Sketch.</desc>
    <defs></defs>
    <g id="-electric-feel" stroke="none" stroke-width="1" fill="none" fill-rule="evenodd">
        <g id="Landing-Page" transform="translate(-511.000000, -37.000000)">
            <g id="people" transform="translate(271.000000, 37.000000)">
                <g id="we" transform="translate(151.000000, 0.000000)">
                    <g id="I" transform="translate(72.000000, 0.000000)">
                        <g id="Group-79" transform="translate(17.000000, 0.100000)">
                            <g id="lamp">
                                <path d="M8.7903871,18.1851636 C8.7903871,13.6193455 12.6059516,9.94734545 17.2162742,10.1953455 C21.2945806,10.4142545 24.6071613,13.7968 24.7566774,17.8862545 C24.8372419,20.1160727 24.0054677,22.1480727 22.6061129,23.6433455 C21.4542581,24.8753455 20.4802258,26.2629818 19.8277258,27.8193455 L19.3987742,28.8426182 L19.3987742,30.3597091 L17.3135323,30.3597091 L16.2386129,30.3597091 L14.153371,30.3597091 L14.153371,28.8426182 L13.8674032,28.1604364 C13.1488548,26.4462545 12.087,24.9124364 10.8436935,23.5328 C9.56845161,22.1168 8.7903871,20.2433455 8.7903871,18.1851636 Z" id="Fill-66" fill="#FFF18B"></path>
                                <polygon id="Fill-68" fill="#5252CA" points="13.9616129 32.8341818 19.5902419 32.8341818 19.5902419 28.8945455 13.9616129 28.8945455"></polygon>
                                <polygon id="Fill-70" fill="#BFABFF" points="15.8088629 30.6794909 17.4078145 30.6794909 20.3045081 17.1442182 19.6803145 17.0104 16.8917661 30.0402182 16.3394274 30.0402182 13.8731371 16.7500364 13.2460403 16.8664"></polygon>
                                <path d="M15.5253629,32.9237818 C15.5253629,33.6161455 16.0849597,34.1776 16.7766532,34.1776 C17.4668952,34.1776 18.0264919,33.6161455 18.0264919,32.9237818 C18.0264919,32.2314182 17.4668952,31.6699636 16.7766532,31.6699636 C16.0849597,31.6699636 15.5253629,32.2314182 15.5253629,32.9237818" id="Fill-71" fill="#5252CA"></path>
                                <polygon id="Fill-72" fill="#FFF18B" points="16.4983065 7.20581818 16.9577419 7.20581818 16.9577419 0.654545455 16.4983065 0.654545455"></polygon>
                                <polygon id="Fill-73" fill="#FFF18B" points="0.694596774 16.9505455 7.23266129 16.9505455 7.23266129 16.4901818 0.694596774 16.4901818"></polygon>
                                <polygon id="Fill-74" fill="#FFF18B" points="26.2233871 16.9505455 32.7614516 16.9505455 32.7614516 16.4901818 26.2233871 16.4901818"></polygon>
                                <polygon id="Fill-75" fill="#FFF18B" points="24.0259355 10.6297455 28.9469032 6.31629091 28.6449677 5.97010909 23.724 10.2828364"></polygon>
                                <polygon id="Fill-76" fill="#FFF18B" points="10.3036935 9.7104 10.6499032 9.40712727 6.34514516 4.47621818 5.99966129 4.77949091"></polygon>
                            </g>
                        </g>
                    </g>
                </g>
            </g>
        </g>
    </g>
</svg>