<?xml version="1.0" encoding="UTF-8" standalone="no"?>
<svg width="11px" height="12px" viewBox="0 0 11 12" version="1.1" xmlns="http://www.w3.org/2000/svg" xmlns:xlink="http://www.w3.org/1999/xlink">
    <!-- Generator: Sketch 50.2 (55047) - http://www.bohemiancoding.com/sketch -->
    <title>Fill 78@1x</title>
    <desc>Created with Sketch.</desc>
    <defs></defs>
    <g id="-electric-feel" stroke="none" stroke-width="1" fill="none" fill-rule="evenodd">
        <g id="Landing-Page" transform="translate(-551.000000, -48.000000)" fill="#FFFFFF">
            <g id="people" transform="translate(271.000000, 37.000000)">
                <g id="we" transform="translate(151.000000, 0.000000)">
                    <g id="I" transform="translate(72.000000, 0.000000)">
                        <g id="Group-79" transform="translate(17.000000, 0.100000)">
                            <path d="M43.3944919,16.7611636 C43.3944919,15.5233455 44.395379,14.5204364 45.6299758,14.5204364 C46.8645726,14.5204364 47.8654597,15.5233455 47.8654597,16.7611636 C47.8654597,17.9982545 46.8645726,19.0011636 45.6299758,19.0011636 C44.395379,19.0011636 43.3944919,17.9982545 43.3944919,16.7611636 M40.2851371,16.2898909 L40.2851371,17.2317091 C40.2851371,17.5568 40.5173952,17.8317091 40.83675,17.8855273 L41.5872339,18.0106182 C41.6627177,18.2615273 41.7657823,18.5051636 41.8884435,18.7400727 L41.4464274,19.3626182 C41.2591694,19.6258909 41.290379,19.9866182 41.5175565,20.2149818 L42.183121,20.8818909 C42.3086855,21.0069818 42.4734435,21.0768 42.6505403,21.0768 C42.7884435,21.0768 42.9227177,21.0338909 43.0344919,20.9531636 L43.6521532,20.5102545 C43.8851371,20.6331636 44.1282823,20.7342545 44.3808629,20.8120727 L44.507879,21.5640727 C44.5615887,21.8840727 44.8359435,22.1168 45.160379,22.1168 L46.1024758,22.1168 C46.4261855,22.1168 46.7012661,21.8840727 46.7549758,21.5640727 L46.8798145,20.8120727 C47.1229597,20.7364364 47.3595726,20.6397091 47.5852984,20.5211636 L48.213121,20.9691636 C48.3241694,21.0491636 48.4562661,21.0920727 48.5948952,21.0920727 C48.7712661,21.0920727 48.93675,21.0222545 49.0615887,20.8971636 L49.7271532,20.2309818 C49.9572339,20.0026182 49.9862661,19.6418909 49.7982823,19.3778909 L49.3584435,18.7648 C49.4840081,18.5320727 49.5863468,18.2884364 49.6647339,18.0375273 L50.4239274,17.9080727 C50.7432823,17.8542545 50.9748145,17.5793455 50.9748145,17.2542545 L50.9748145,16.3124364 C50.9748145,15.9880727 50.7432823,15.7124364 50.4239274,15.6586182 L49.6821532,15.5335273 C49.6066694,15.2804364 49.5079597,15.0368 49.3852984,14.8018909 L49.8316694,14.1728 C50.0196532,13.9095273 49.9884435,13.5488 49.7605403,13.3204364 L49.0927984,12.6542545 C48.9701371,12.5284364 48.8024758,12.4586182 48.6261048,12.4586182 C48.4874758,12.4586182 48.3532016,12.5015273 48.2421532,12.5822545 L47.6273952,13.0251636 C47.3958629,12.9000727 47.1519919,12.7968 46.9015887,12.7189818 L46.7723952,11.9582545 C46.7186855,11.6382545 46.4443306,11.4055273 46.120621,11.4055273 L45.1799758,11.4055273 C44.8569919,11.4055273 44.5819113,11.6382545 44.5282016,11.9582545 L44.4033629,12.7008 C44.1413468,12.7793455 43.8894919,12.8840727 43.6485242,13.0120727 L43.0272339,12.5684364 C42.9161855,12.4884364 42.7840887,12.4455273 42.6454597,12.4455273 C42.4698145,12.4455273 42.3036048,12.5153455 42.1787661,12.6404364 L41.5132016,13.3073455 C41.2838468,13.5349818 41.2548145,13.8957091 41.4420726,14.1597091 L41.8840887,14.7793455 C41.7614274,15.0120727 41.6605403,15.2564364 41.582879,15.5088 L40.8323952,15.6368 C40.5130403,15.6898909 40.2807823,15.9655273 40.2851371,16.2898909" id="Fill-78"></path>
                        </g>
                    </g>
                </g>
            </g>
        </g>
    </g>
</svg>