<?xml version="1.0" encoding="UTF-8" standalone="no"?>
<svg width="14px" height="14px" viewBox="0 0 14 14" version="1.1" xmlns="http://www.w3.org/2000/svg" xmlns:xlink="http://www.w3.org/1999/xlink">
    <!-- Generator: Sketch 50.2 (55047) - http://www.bohemiancoding.com/sketch -->
    <title>Fill 77@1x</title>
    <desc>Created with Sketch.</desc>
    <defs></defs>
    <g id="-electric-feel" stroke="none" stroke-width="1" fill="none" fill-rule="evenodd">
        <g id="Landing-Page" transform="translate(-539.000000, -63.000000)" fill="#FFFFFF">
            <g id="people" transform="translate(271.000000, 37.000000)">
                <g id="we" transform="translate(151.000000, 0.000000)">
                    <g id="I" transform="translate(72.000000, 0.000000)">
                        <g id="Group-79" transform="translate(17.000000, 0.100000)">
                            <path d="M32.5671613,33.0885818 C32.5671613,31.5765818 33.790871,30.3504 35.2990968,30.3504 C36.8080484,30.3504 38.0310323,31.5765818 38.0310323,33.0885818 C38.0310323,34.6005818 36.8080484,35.8260364 35.2990968,35.8260364 C33.790871,35.8260364 32.5671613,34.6005818 32.5671613,33.0885818 M28.7675645,32.5125818 L28.7675645,33.6645818 C28.7675645,34.0602182 29.050629,34.3969455 29.4411129,34.4624 L30.3585323,34.6158545 C30.4514355,34.9220364 30.577,35.2202182 30.7272419,35.5067636 L30.1865161,36.2674909 C29.9571613,36.5896727 29.995629,37.0304 30.2736129,37.3089455 L31.0872419,38.1242182 C31.2396613,38.2769455 31.4414355,38.3620364 31.6577258,38.3620364 C31.8261129,38.3620364 31.9901452,38.3096727 32.1273226,38.2114909 L32.8828871,37.6704 C33.1666774,37.8202182 33.4635323,37.9438545 33.772,38.0391273 L33.9280484,38.9576727 C33.993371,39.3489455 34.3294194,39.6340364 34.7249839,39.6340364 L35.8768387,39.6340364 C36.2716774,39.6340364 36.6077258,39.3489455 36.6730484,38.9576727 L36.8261935,38.0391273 C37.1230484,37.9467636 37.413371,37.8289455 37.6884516,37.6834909 L38.4549032,38.2304 C38.5920806,38.3293091 38.7524839,38.3809455 38.9223226,38.3809455 C39.1378871,38.3809455 39.3396613,38.2965818 39.4920806,38.1431273 L40.3057097,37.3285818 C40.5865968,37.0493091 40.6221613,36.6093091 40.3928065,36.2864 L39.8549839,35.5373091 C40.008129,35.2529455 40.1336935,34.9547636 40.2295,34.6485818 L41.1570806,34.4900364 C41.5468387,34.4238545 41.8313548,34.0878545 41.8313548,33.6914909 L41.8313548,32.5402182 C41.8313548,32.1438545 41.5468387,31.8071273 41.1570806,31.7416727 L40.2512742,31.5882182 C40.158371,31.2798545 40.0378871,30.9816727 39.888371,30.6944 L40.4341774,29.9256727 C40.6628065,29.6034909 40.6250645,29.1634909 40.3463548,28.8842182 L39.5305484,28.0696727 C39.3803065,27.9162182 39.175629,27.8311273 38.9607903,27.8311273 C38.7909516,27.8311273 38.6276452,27.8834909 38.4904677,27.9816727 L37.7399839,28.5234909 C37.4561935,28.3700364 37.1586129,28.2442182 36.8530484,28.1489455 L36.6948226,27.2187636 C36.6295,26.8282182 36.2941774,26.5431273 35.8986129,26.5431273 L34.7496613,26.5431273 C34.3540968,26.5431273 34.0180484,26.8282182 33.952,27.2187636 L33.7995806,28.1264 C33.4802258,28.2224 33.1717581,28.3511273 32.8770806,28.5067636 L32.1186129,27.9656727 C31.9821613,27.8667636 31.8210323,27.8151273 31.6519194,27.8151273 C31.4363548,27.8151273 31.2345806,27.8994909 31.0814355,28.0529455 L30.2685323,28.8674909 C29.9869194,29.1467636 29.9513548,29.5867636 30.1814355,29.9096727 L30.7214355,30.6667636 C30.5711935,30.9518545 30.4485323,31.2493091 30.3527258,31.5584 L29.4360323,31.7140364 C29.0455484,31.7802182 28.7617581,32.1162182 28.7675645,32.5125818" id="Fill-77"></path>
                        </g>
                    </g>
                </g>
            </g>
        </g>
    </g>
</svg>